<svg xmlns="http://www.w3.org/2000/svg" width="30" height="30"><path fill="#4F46E5" d="M2.102 0h25.796C29.058 0 30 .941 30 2.102v25.796c0 1.16-.941 2.102-2.102 2.102H2.102A2.1 2.1 0 0 1 0 27.898V2.102C0 .942.941 0 2.102 0m0 0"/><path fill="none" stroke="#FFF" stroke-linecap="round" stroke-linejoin="round" stroke-width="1.2000000000000002" d="M16.684 9.844c.453.222.98.222 1.43 0l2.929-1.465a.8.8 0 0 1 1.156.715v10.21a.81.81 0 0 1-.441.72l-3.645 1.82c-.449.222-.976.222-1.43 0l-3.367-1.684a1.59 1.59 0 0 0-1.43 0l-2.929 1.461a.79.79 0 0 1-.777-.035.79.79 0 0 1-.38-.68v-10.21c0-.305.173-.583.442-.716l3.645-1.824c.449-.222.976-.222 1.43 0ZM17.398 10.012v12M12.602 7.988v12"/></svg>
